<svg width="343" height="363" viewBox="0 0 343 363" fill="none" xmlns="http://www.w3.org/2000/svg">
<g clip-path="url(#clip0_328_2)">
<rect width="343" height="363" fill="#212529"/>
<path d="M500.83 138.974L518.829 139.144L519.17 103.146L501.171 102.976L500.83 138.974ZM81.0001 117L260.009 222.622L261.976 14.785L81.0001 117ZM501.171 102.976L243.163 100.534L242.823 136.532L500.83 138.974L501.171 102.976Z" fill="#B2F2BB"/>
<path d="M-156.83 264.974L-174.829 265.144L-175.17 229.146L-157.17 228.976L-156.83 264.974ZM263 243L83.9919 348.622L82.0249 140.785L263 243ZM-157.17 228.976L100.837 226.534L101.178 262.532L-156.83 264.974L-157.17 228.976Z" fill="#B2BECB"/>
</g>
<defs>
<clipPath id="clip0_328_2">
<rect width="343" height="363" fill="white"/>
</clipPath>
</defs>
</svg>
